# xmcd
#
# Track frame offsets: 
#        150
#        10249
#        23656
#        37348
#        45664
#        54814
#        66866
#        80901
#        90667
#        105574
#        117876
#        132626
#        141679
#
# Disc length: 2052 seconds
#
# Revision: 0
# Processed by: cddbd v1.5.2PL0 Copyright (c) Steve Scherf et al.
# Submitted via: ExactAudioCopyFreeDBPlugin 1.0
#
DISCID=b808020d
DTITLE=Radio UFO - Radio UFO
DYEAR=2013
DGENRE=Country
TTITLE0=Texas Driver
TTITLE1=Plasticine Boy
TTITLE2=Trombal Trip
TTITLE3=Wormsik
TTITLE4=Old Song
TTITLE5=La Hawaja
TTITLE6=Ghostwood (based on Laura Palmer's Secret Diary)
TTITLE7=Szum II (improv)
TTITLE8=Laura's Dream (based on Laura Palmer's Secret Diary)
TTITLE9=Jacalamenti (improv)
TTITLE10=Angels Have Gone
TTITLE11=Tribute To Don
TTITLE12=Radoi UFO
EXTD=
EXTT0=
EXTT1=
EXTT2=
EXTT3=
EXTT4=
EXTT5=
EXTT6=
EXTT7=
EXTT8=
EXTT9=
EXTT10=
EXTT11=
EXTT12=
PLAYORDER=
